<svg xmlns="http://www.w3.org/2000/svg" version="1.1" xmlns:xlink="http://www.w3.org/1999/xlink" xmlns:svgjs="http://svgjs.dev/svgjs" width="800" height="639" viewBox="0 0 1500 939"><g transform="matrix(1,0,0,1,-0.9090909090909918,-1.5145161290323017)"><svg viewBox="0 0 396 248" data-background-color="#efefef" preserveAspectRatio="xMidYMid meet" height="939" width="1500" xmlns="http://www.w3.org/2000/svg" xmlns:xlink="http://www.w3.org/1999/xlink"><g id="tight-bounds" transform="matrix(1,0,0,1,0.2400000000000091,0.4000000000000057)"><svg viewBox="0 0 395.52 247.2" height="247.2" width="395.52"><g><svg></svg></g><g><svg viewBox="0 0 395.52 247.2" height="247.2" width="395.52"><g transform="matrix(1,0,0,1,113.26619764089122,47.215199999999996)"><svg viewBox="0 0 168.98760471821754 152.7696" height="152.7696" width="168.98760471821754"><g><svg viewBox="0 0 168.98760471821754 152.7696" height="152.7696" width="168.98760471821754"><g><svg viewBox="0 0 168.98760471821754 152.7696" height="152.7696" width="168.98760471821754"><g><svg viewBox="0 0 168.98760471821754 152.7696" height="152.7696" width="168.98760471821754"><g id="textblocktransform"><svg viewBox="0 0 168.98760471821754 152.7696" height="152.7696" width="168.98760471821754" id="textblock"><g><svg viewBox="0 0 168.98760471821754 152.7696" height="152.7696" width="168.98760471821754"><g transform="matrix(1,0,0,1,0,0)"><svg width="168.98760471821754" viewBox="0.9 -34.55 42.2 38.15" height="152.7696" data-palette-color="#d94e28"><path d="M0.9 3.6L0.9 3.6 0.9 0.05Q2.55 0.05 3.65-0.1 4.75-0.25 5.35-0.78 5.95-1.3 6.2-2.4 6.45-3.5 6.45-5.35L6.45-5.35 6.45-34.55 10.45-34.55 10.45-4.8Q10.45-2 9.9-0.33 9.35 1.35 8.18 2.2 7 3.05 5.2 3.33 3.4 3.6 0.9 3.6ZM19.6 0L15.6 0 25.05-34.55 33.7-34.55 43.1 0 39.1 0 36.65-8.75 22.05-8.75 19.6 0ZM28.05-31.15L22.9-12.3 35.8-12.3 30.65-31.15 28.05-31.15Z" opacity="1" transform="matrix(1,0,0,1,0,0)" fill="#d94e28" class="wordmark-text-0" data-fill-palette-color="primary" id="text-0"></path></svg></g></svg></g></svg></g></svg></g></svg></g></svg></g></svg></g><g><path d="M208.094 0c30.402 0 58.24 10.976 79.768 29.183l-11.147 0c-19.26-14.022-42.974-22.294-68.621-22.295-25.647 0-49.361 8.272-68.621 22.295l-11.147 0c21.528-18.206 49.366-29.183 79.768-29.183zM331.694 123.6c0 25.315-7.61 48.852-20.668 68.448v-13.386c8.793-16.402 13.779-35.15 13.779-55.062 0-19.912-4.987-38.66-13.779-55.062l0-13.386c13.057 19.597 20.668 43.134 20.668 68.448zM208.094 247.2c-30.402 0-58.24-10.976-79.768-29.183l11.147 0c19.26 14.022 42.974 22.294 68.621 22.295 25.647 0 49.361-8.272 68.621-22.295l11.147 0c-21.528 18.206-49.366 29.183-79.768 29.183z" fill="#d94e28" stroke="transparent" data-fill-palette-color="tertiary"></path></g></svg></g><defs></defs></svg><rect width="395.52" height="247.2" fill="none" stroke="none" visibility="hidden"></rect></g></svg></g></svg>

